<?xml version="1.0" standalone="no"?>
<!DOCTYPE svg PUBLIC "-//W3C//DTD SVG 20010904//EN"
 "http://www.w3.org/TR/2001/REC-SVG-20010904/DTD/svg10.dtd">
<svg version="1.0" xmlns="http://www.w3.org/2000/svg"
 width="256.000000pt" height="256.000000pt" viewBox="0 0 256.000000 256.000000"
 preserveAspectRatio="xMidYMid meet">

<g transform="translate(0.000000,256.000000) scale(0.100000,-0.100000)"
fill="#fff" stroke="none">
<path d="M1263 2372 c-28 -11 -103 -15 -293 -16 -237 -1 -260 -3 -324 -25 -37
-12 -78 -33 -90 -45 -11 -12 -55 -44 -97 -69 -99 -62 -170 -136 -197 -209 -21
-57 -52 -255 -52 -336 0 -24 5 -64 11 -90 24 -99 72 -258 87 -287 8 -16 24
-79 34 -140 10 -60 27 -126 37 -145 73 -138 92 -172 115 -208 14 -22 33 -43
43 -46 10 -3 31 -29 46 -58 58 -103 106 -157 159 -176 31 -10 59 -29 74 -49
36 -47 102 -89 153 -98 30 -5 54 -18 78 -41 64 -64 252 -138 416 -164 140 -23
300 4 381 62 17 13 47 31 66 41 19 9 69 50 110 89 41 40 100 94 130 121 62 54
110 120 110 149 0 11 8 32 18 46 32 47 50 105 61 202 24 205 12 510 -24 610
-9 25 -22 81 -30 124 -27 153 -135 333 -253 423 -31 24 -67 56 -80 73 -14 18
-33 30 -47 30 -17 0 -37 18 -75 70 -61 83 -112 125 -183 152 -43 17 -78 21
-199 22 -104 1 -158 -2 -185 -12z m192 -98 c19 -9 57 -40 85 -70 28 -30 55
-54 60 -54 16 0 50 -43 50 -62 0 -12 -4 -17 -12 -12 -17 11 46 -99 101 -176
25 -35 55 -81 66 -102 11 -21 48 -84 82 -141 126 -207 168 -333 183 -550 8
-108 7 -140 -6 -184 -15 -50 -36 -83 -54 -83 -4 0 -7 -44 -6 -97 1 -91 -1
-103 -31 -165 -17 -38 -28 -68 -22 -68 5 0 8 -10 8 -22 -1 -15 -30 -50 -79
-97 l-78 -73 -16 30 c-21 41 -16 99 13 145 31 50 38 113 18 169 -9 23 -18 56
-22 71 -7 33 -21 31 -49 -6 -19 -26 -19 -28 -3 -87 30 -105 19 -141 -46 -152
-34 -6 -159 20 -152 31 6 11 -95 61 -122 61 -12 0 -25 -5 -28 -10 -5 -8 -11
-8 -20 0 -9 8 -21 0 -49 -30 -20 -22 -36 -45 -36 -50 0 -6 -11 -10 -25 -10
-13 0 -33 -10 -44 -21 -30 -32 -82 -21 -169 36 -88 57 -192 105 -227 105 -16
0 -31 10 -42 27 -10 16 -37 47 -61 71 -23 23 -58 66 -76 95 -19 29 -41 59 -50
66 -9 7 -16 19 -16 25 0 6 -9 22 -20 36 -13 18 -16 28 -8 37 12 15 2 67 -11
58 -12 -7 -45 80 -36 95 5 8 11 6 20 -7 25 -34 27 -5 2 32 -16 23 -27 32 -30
23 -2 -7 -21 21 -41 62 -24 49 -33 77 -26 84 15 15 12 50 -10 100 -16 37 -17
51 -8 71 9 20 6 38 -20 107 -66 175 -82 319 -43 381 21 34 111 126 111 114 0
-5 19 5 43 21 23 16 65 41 94 55 l51 26 56 -19 c50 -17 59 -17 83 -5 16 8 44
15 64 15 37 0 55 13 103 74 l23 29 73 -12 c51 -8 76 -9 84 -1 5 5 35 10 66 11
30 0 73 4 95 8 65 14 125 12 160 -5z m-567 -26 c-5 -14 -19 -19 -118 -42 -36
-8 -76 -18 -89 -22 -16 -5 -22 -4 -17 4 3 6 41 22 84 36 118 38 146 43 140 24z
m1279 -1410 c-3 -7 -5 -2 -5 12 0 14 2 19 5 13 2 -7 2 -19 0 -25z"/>
<path d="M1283 2263 c-19 -4 -20 -6 -8 -30 22 -42 77 -73 119 -66 46 7 48 33
7 74 -29 29 -57 34 -118 22z"/>
<path d="M1180 2033 c0 -6 -27 -20 -60 -32 -43 -16 -58 -26 -53 -36 3 -8 10
-15 16 -15 5 0 -14 -26 -44 -57 -95 -101 -99 -109 -99 -210 1 -48 7 -130 14
-182 l13 -94 -46 -46 c-25 -25 -54 -55 -63 -66 -9 -11 -24 -26 -32 -33 -23
-19 -20 -55 8 -79 17 -15 25 -36 30 -77 4 -31 11 -56 15 -56 13 0 49 44 61 75
6 16 10 56 9 89 -3 65 14 88 28 39 12 -44 6 -175 -12 -226 -11 -34 -13 -56 -6
-87 13 -60 21 -61 21 -2 0 28 7 73 16 99 23 67 24 181 2 215 -12 18 -14 29 -7
33 14 10 19 3 42 -57 12 -34 20 -84 22 -137 l2 -85 45 -40 c158 -145 198 -180
198 -173 0 19 -37 60 -106 117 -87 72 -104 100 -104 170 0 28 -6 63 -14 78
-17 34 -31 142 -18 142 5 0 35 -46 65 -102 54 -99 60 -105 138 -157 50 -34 96
-75 121 -108 50 -66 64 -62 16 4 -21 29 -64 67 -110 98 -73 47 -93 75 -67 91
7 4 0 12 -19 19 -53 23 -113 155 -77 169 9 3 25 1 35 -4 10 -6 27 -10 38 -10
11 0 22 -7 26 -15 3 -8 14 -15 24 -15 11 0 26 -7 33 -17 31 -37 112 -93 136
-93 22 0 95 -47 116 -75 4 -6 11 -5 17 5 5 8 10 10 10 4 0 -11 44 -25 95 -30
11 -2 36 -6 56 -9 35 -7 37 -6 41 26 3 19 1 36 -4 37 -5 2 -4 10 3 18 9 11 7
18 -10 33 -11 10 -21 24 -21 30 0 7 -13 26 -30 43 -16 16 -30 36 -30 44 0 8
-7 14 -17 14 -9 0 -30 10 -47 23 -33 25 -63 39 -166 82 -51 21 -79 26 -130 25
-186 -7 -190 -6 -122 43 87 65 186 200 208 285 10 40 10 42 -8 36 -10 -3 -39
-6 -63 -6 -32 0 -56 -8 -90 -30 -25 -17 -48 -29 -50 -26 -3 2 0 33 6 69 12 72
16 225 6 236 -4 3 -7 2 -7 -4z"/>
<path d="M1037 807 c45 -57 123 -137 116 -120 -9 26 -91 121 -116 134 l-20 12
20 -26z"/>
<path d="M1920 720 c0 -8 5 -22 10 -30 9 -13 10 -13 10 0 0 8 -5 22 -10 30 -9
13 -10 13 -10 0z"/>
</g>
</svg>
